<?xml version="1.0" encoding="UTF-8"?>
<svg width="48px" height="48px" viewBox="0 0 48 48" version="1.1" xmlns="http://www.w3.org/2000/svg" xmlns:xlink="http://www.w3.org/1999/xlink">
    <!-- Generator: Sketch 48.2 (47327) - http://www.bohemiancoding.com/sketch -->
    <title>Process improve</title>
    <desc>Created with Sketch.</desc>
    <defs>
        <rect id="path-1" x="23" y="8" width="3" height="3"></rect>
        <rect id="path-2" x="23" y="37" width="3" height="3"></rect>
        <rect id="path-3" x="37" y="8" width="3" height="3"></rect>
        <rect id="path-4" x="37" y="23" width="3" height="3"></rect>
        <rect id="path-5" x="37" y="37" width="3" height="3"></rect>
        <rect id="path-6" x="8" y="8" width="3" height="3"></rect>
        <rect id="path-7" x="8" y="23" width="3" height="3"></rect>
        <rect id="path-8" x="8" y="37" width="3" height="3"></rect>
    </defs>
    <g id="Page-1" stroke="none" stroke-width="1" fill="none" fill-rule="evenodd">
        <g id="Process-improve">
            <rect id="Rectangle-3" stroke="#979797" x="9.5" y="9.5" width="29" height="29"></rect>
            <g id="Rectangle-3-Copy">
                <use fill="#FFFFFF" fill-rule="evenodd" xlink:href="#path-1"></use>
                <rect stroke="#979797" stroke-width="1" x="23.5" y="8.5" width="2" height="2"></rect>
            </g>
            <g id="Rectangle-3-Copy-8">
                <use fill="#FFFFFF" fill-rule="evenodd" xlink:href="#path-2"></use>
                <rect stroke="#979797" stroke-width="1" x="23.5" y="37.5" width="2" height="2"></rect>
            </g>
            <g id="Rectangle-3-Copy-2">
                <use fill="#FFFFFF" fill-rule="evenodd" xlink:href="#path-3"></use>
                <rect stroke="#979797" stroke-width="1" x="37.5" y="8.5" width="2" height="2"></rect>
            </g>
            <g id="Rectangle-3-Copy-4">
                <use fill="#FFFFFF" fill-rule="evenodd" xlink:href="#path-4"></use>
                <rect stroke="#979797" stroke-width="1" x="37.5" y="23.5" width="2" height="2"></rect>
            </g>
            <g id="Rectangle-3-Copy-6">
                <use fill="#FFFFFF" fill-rule="evenodd" xlink:href="#path-5"></use>
                <rect stroke="#979797" stroke-width="1" x="37.5" y="37.5" width="2" height="2"></rect>
            </g>
            <g id="Rectangle-3-Copy-3">
                <use fill="#FFFFFF" fill-rule="evenodd" xlink:href="#path-6"></use>
                <rect stroke="#979797" stroke-width="1" x="8.5" y="8.5" width="2" height="2"></rect>
            </g>
            <g id="Rectangle-3-Copy-5">
                <use fill="#FFFFFF" fill-rule="evenodd" xlink:href="#path-7"></use>
                <rect stroke="#979797" stroke-width="1" x="8.5" y="23.5" width="2" height="2"></rect>
            </g>
            <g id="Rectangle-3-Copy-7">
                <use fill="#FFFFFF" fill-rule="evenodd" xlink:href="#path-8"></use>
                <rect stroke="#979797" stroke-width="1" x="8.5" y="37.5" width="2" height="2"></rect>
            </g>
            <path d="M16.446,31.265 L19.79,31.265 L19.372,29.726 C18.935,28.263 18.555,26.648 18.137,25.128 L18.061,25.128 C17.7,26.667 17.282,28.263 16.864,29.726 L16.446,31.265 Z M21.386,37.06 L20.398,33.45 L15.838,33.45 L14.85,37.06 L12,37.06 L16.503,23 L19.809,23 L24.331,37.06 L21.386,37.06 Z" id="A" fill="#787878"></path>
            <path d="M21.2405946,26.3190541 L27.4386486,26.3190541 L26.6638919,23.4665405 C25.8539189,20.7548919 25.1495946,17.7615135 24.3748378,14.9442162 L24.233973,14.9442162 C23.5648649,17.7967297 22.7901081,20.7548919 22.0153514,23.4665405 L21.2405946,26.3190541 Z M30.3968108,37.06 L28.5655676,30.3689189 L20.1136757,30.3689189 L18.2824324,37.06 L13,37.06 L21.3462432,11 L27.4738649,11 L35.8553243,37.06 L30.3968108,37.06 Z" id="A-Copy" fill="#787878" opacity="0.278475996"></path>
        </g>
    </g>
</svg>